# xmcd
#
# Track frame offsets: 
#        224
#        14341
#        32812
#        44299
#
# Disc length: 805 seconds
#
# Revision: 0
# Processed by: cddbd v1.5.2PL0 Copyright (c) Steve Scherf et al.
# Submitted via: ExactAudioCopyFreeDBPlugin 1.0
#
DISCID=29032304
DTITLE=Delgirl - Live at the Wunderbar
DYEAR=2006
DGENRE=New Zealand: Country/Blues
TTITLE0=Old Fool
TTITLE1=Little Sparrow
TTITLE2=Blue
TTITLE3=Away
EXTD=
EXTT0=
EXTT1=
EXTT2=
EXTT3=
PLAYORDER=
